<svg xmlns="http://www.w3.org/2000/svg" xmlns:xlink="http://www.w3.org/1999/xlink" viewBox="0 0 128.31 65.15"><defs><style>.a{fill:url(#a);}.b{fill:url(#b);}.c{fill:url(#c);}.d{fill:#202b6d;}.e{fill:gray;}.f{fill:#fff;}</style><linearGradient id="a" y1="42.43" x2="128.31" y2="42.43" gradientUnits="userSpaceOnUse"><stop offset="0" stop-opacity="0"/><stop offset="0.5"/><stop offset="1" stop-opacity="0"/></linearGradient><radialGradient id="b" cx="41.54" cy="49.08" r="13.79" gradientUnits="userSpaceOnUse"><stop offset="0.17" stop-color="#8cc63f"/><stop offset="1" stop-color="#006837"/></radialGradient><radialGradient id="c" cx="35.92" cy="17.05" r="28.79" gradientUnits="userSpaceOnUse"><stop offset="0" stop-color="#16367d"/><stop offset="1" stop-color="#16153f"/></radialGradient></defs><title>Logo-yl</title><rect class="a" y="41.43" width="128.31" height="2"/><circle class="b" cx="42.99" cy="51.56" r="13.59"/><path class="c" d="M45.51,19.8a4.32,4.32,0,0,1-3.8-1.65,1.07,1.07,0,0,1,.36-1.75,3.33,3.33,0,0,1,1.54-.4,9.13,9.13,0,0,0,5.69-1.67c.68-.42,1.58-.27,2.34-.62A2.48,2.48,0,0,0,53,12.3c1.07-2.16.47-4.38.72-6.55a22.63,22.63,0,0,0,0-3.19c0-.61.21-.81.81-.79a12.63,12.63,0,0,0,2.13-.12,1.06,1.06,0,0,1,1.24.56C58,5.48,57.07,8.66,57,12c1-.26,2.06-.5,3.08-.77a1.43,1.43,0,0,0,.36-.2c1.32-.59,2.64-1.15,3.95-1.77.5-.23,1.05-.43,1.28-1a.8.8,0,0,1,.59-.41c1.23.09,2.56-.59,3.65.34.54.46,1.18.15,1.69.48,0,.68,0,1.35,0,2s-.21.82-.81.79a8.82,8.82,0,0,0-3.06.31c-3,.89-5.94,2-8.91,3-.66.22-1.05.9-1.76.92s-.72.31-.75.79a9.29,9.29,0,0,1-1.08,3.3,65.25,65.25,0,0,0-2.73,7c-.11.33.07.82-.25,1-1.33.78-1.78,2.27-2.75,3.34a4.88,4.88,0,0,1-2,1.31,23,23,0,0,1-4.7.76c-.52,0-1.05.23-1.57,0-.12-.37.23-.4.4-.54,2.36-1.85,4.11-4.3,6.14-6.47a7.7,7.7,0,0,0,1.47-3.4c.35-1.34,1-2.57,1.42-3.86a.81.81,0,0,0,.31-1.16.4.4,0,0,0-.6-.21C48.78,18.27,47,18.69,45.51,19.8Z"/><path class="c" d="M57.34,24.34a14.45,14.45,0,0,1,3.91-.21c1.52.34,3.18.44,4.54,1.39A5.72,5.72,0,0,0,69,27a.67.67,0,0,0,.37.49,9.07,9.07,0,0,0,3.24,1.66.74.74,0,0,0,.21,0c1.52,1.82,3,3.63,4.56,5.46a2.35,2.35,0,0,1,.3,2.67,3.35,3.35,0,0,1-3.62,2c-2.11.22-3.14-1.44-4.39-2.62-1.52-1.43-2.5-3.38-4.32-4.52-1.17-1.41-2.93-1.57-4.5-2.13l-.43-.23a.35.35,0,0,0-.4-.21,13.61,13.61,0,0,1-4.52-3.41,10.6,10.6,0,0,0,0-1.26c0-.49.25-.6.62-.66l.4.07c.15.18.32.14.5.05l.28,0Z"/><path class="c" d="M28.79,16.17c-1.46,1-2.81,2.2-4.61,2.59-.18,0-.44.22-.49-.13,0-.08.17-.2.26-.3,2.29-.79,3.82-2.52,5.22-4.37a1,1,0,0,0-.08-1.19c-.32-.3-.71,0-1.06.16-.91.56-1.8,1.15-2.76,1.62A42.16,42.16,0,0,0,18.45,19a12.24,12.24,0,0,1-3.73,1.88A13.66,13.66,0,0,0,10.19,23a15.9,15.9,0,0,1-3.68,2.19A2.68,2.68,0,0,1,3,22.61c0-1.24-.29-2.48.77-3.5a1.59,1.59,0,0,1,1.37-.62,5.94,5.94,0,0,0,5.45-2.09c1.55-1.63,3.57-2.82,4.91-4.68C16.68,10,18.26,8.65,19.57,7a5.87,5.87,0,0,0,1.55-4.88c-.11-.69-.39-1.61.63-2l.19-.06L22.35,0,24,.16l.23.23a.34.34,0,0,0,.26.34l.42.47c.83,1,1.62,2,2.49,2.92a1.57,1.57,0,0,1,.38,1.75C27.05,8,25.08,9,23.48,10a38.57,38.57,0,0,1-6.29,3.26c-3,.64-4.59,3.27-6.94,4.85A12,12,0,0,0,13.19,17l4.08-1.19A23.17,23.17,0,0,0,22.15,14a39.24,39.24,0,0,0,6-2.86c.25-.16.83-.33.47-.75s-.31-1-.39-1.47c.2-.71,1.05-.32,1.37-.83,1-.12,1.61.57,2.34,1a3.42,3.42,0,0,0,1.49,1,3.9,3.9,0,0,1,2.81,4.31c0,.95-.36,1.53-1.45,1.46a15.63,15.63,0,0,0-2.65,0c-1.07.12-2.17-.28-3.19.25h0A.19.19,0,0,0,28.79,16.17Z"/><path class="c" d="M16.17,22.35c.31,0,.63-.05.95-.05,1.23,0,1.46.29,1.41,1.53a3.54,3.54,0,0,0-.73,1.72,77.13,77.13,0,0,0,.13,8.6c0,.34.05.72.47.7.82-.05,1.71.31,2.46-.32A31.7,31.7,0,0,1,26.58,33a1.55,1.55,0,0,0,1.56-1.73,13.28,13.28,0,0,1,1.3-4.47h0l.18-.22c.32-.7.94-1.22,1.11-2,.11-.46,0-.61-.47-.68a6,6,0,0,0-3.44.71c-2.06,1-4,2.15-6,3.25-.26.14-.52.33-.79.14s-.22-.59-.12-.88a3.73,3.73,0,0,0,.33-1.86.28.28,0,0,0,0-.2l.06-.05,0-.06a4.39,4.39,0,0,1,.93-.19,7,7,0,0,0,5.06-2.06c.42-.4,1.17-.44,1.62-.81,2.4-2,5.18-1.2,7.86-1.19a.75.75,0,0,1,.52.34l.06.4a1,1,0,0,0,.2.85A9.34,9.34,0,0,1,36,25.52c-.42,1-1.42,1.64-1.5,2.78,0,.06-.08.13-.14.15-1.35.4-1.45,1.75-2,2.71s0,1.52,1.05,1.48a1.1,1.1,0,0,1,1,.31,2,2,0,0,1-1.17,3.27c-3.52.48-7,1-10.6,1.33-.74.07-2-.27-2,1.18,0,.11-.32.25-.51.31a4.12,4.12,0,0,1-2,.15,11,11,0,0,0-3-.08,3.86,3.86,0,0,1-1.25-.18c-.58-.23-1.11-.4-1.18-1.16s.46-1,1-1.19a1,1,0,0,0,.51-1.34,15.68,15.68,0,0,1-.2-7.21,5.26,5.26,0,0,1,1.73-3.61,1,1,0,0,0,.24-1,1.32,1.32,0,0,1,.28-1.09Z"/><path class="c" d="M20.18,25.3l0-.2A.28.28,0,0,1,20.18,25.3Z"/><path class="d" d="M85.85,24.49v5.56H92a5.21,5.21,0,0,0,.51-.39c.42-.39.7-.59.84-.59a3.92,3.92,0,0,1,1.13.68c.4.27.6.45.6.52v.05a15.51,15.51,0,0,0,1.81-.8l0,0a3.4,3.4,0,0,1-.71-.64,4.84,4.84,0,0,1-.91-1.3l-1.11.05-.37-.69a30.08,30.08,0,0,0,3.08.14h2.53l.48-.37.19-.13a2.2,2.2,0,0,1-.91-.12c-.51-.11-.76-.52-.76-1.25v-.91H96.76a2.53,2.53,0,0,1-1.3,2,4.84,4.84,0,0,1-2,.55l-.09-.14a2.36,2.36,0,0,0,1.36-2.44,3.75,3.75,0,0,0-.18-1.12A15.84,15.84,0,0,1,97,23.8h1.16l.56-.45a1.23,1.23,0,0,1,.62-.26,2.85,2.85,0,0,1,1.09.44c.46.29.72.5.72.68s-.14.23-.42.37-.48.25-.48.4,0,.3.18.33a1.8,1.8,0,0,0,.72.08l.46,0a.62.62,0,0,0,.56-.31c.14-.21.3-.49.53-.85l.26.07.09.29a1,1,0,0,0,.32.65c.28.25.42.41.42.52,0,.29-.25.5-.76.63a8.33,8.33,0,0,1-1.88.21l.53.3c.56.39.84.63.84.73s-.21.2-.63.22a1.85,1.85,0,0,0-.74.14,5.36,5.36,0,0,1-1.51,1.25l0,0a25.6,25.6,0,0,0,3.89.48l-.09.26a1.3,1.3,0,0,0-.93.68c.14.11.33.25.51.41.51.43.79.7.79.8s-.14.27-.37.27H96.34v1.39H99l.67-.48a1.46,1.46,0,0,1,.67-.34,4.13,4.13,0,0,1,1.32.5c.74.43,1.13.73,1.13.89s-.18.3-.51.48-.39.39-.39.55v.57L102,39c0,.19-.39.33-1.16.44l-.74,0c-.41,0-.62-.16-.62-.48v-.29H87.22V39c0,.19-.37.33-1.07.44l-.65,0c-.5,0-.74-.16-.74-.48a6.55,6.55,0,0,0,.1-1V34.17c0-.39,0-.85-.1-1.41a26.84,26.84,0,0,1,2.67.77h2.41a8.4,8.4,0,0,0,.09-1v-.36H86c-1.32,0-2.25,0-2.81.07l-.37-.69a25.6,25.6,0,0,0,3.18.14h14.38a4.85,4.85,0,0,0,.67-.59l0,0a6.24,6.24,0,0,1-.79-.17,11.59,11.59,0,0,1-2.32-.77l-.58.21a19.76,19.76,0,0,1-4.07.88l-.09-.29c.41-.1.83-.21,1.25-.35h-8.6v.21c0,.21-.32.36-1,.45-.3,0-.51.05-.65.05-.42,0-.62-.16-.62-.5,0-.53.06-1.07.06-1.6V25.46c0-.75,0-1.5-.06-2.23a24,24,0,0,1,2.73.76h4.77l.46-.37c.42-.36.68-.53.79-.53a3.61,3.61,0,0,1,1.09.64c.37.25.56.41.56.48a.25.25,0,0,1-.28.28h-6a8.39,8.39,0,0,0,.84.18c.46.13.69.25.69.38s-.14.16-.39.17a1.31,1.31,0,0,0-.44.09l-.19.22h2.37l.41-.29a1.7,1.7,0,0,1,.68-.41,4,4,0,0,1,.9.5c.3.22.46.36.46.41,0,.2-.09.29-.28.29H90.55c0,.46-.07.85-.11,1.17h.67a3.38,3.38,0,0,0,.46-.39,2.45,2.45,0,0,1,.63-.44,1.81,1.81,0,0,1,.79.46c.37.32.55.52.55.59s-.09.26-.25.26h-3a1.17,1.17,0,0,1-.12.2,18.2,18.2,0,0,1,1.88.3c.37.11.58.25.58.41a.91.91,0,0,1-.42.73,1.11,1.11,0,0,1-.76.25.74.74,0,0,1-.67-.41,3.22,3.22,0,0,0-.88-.83,1.45,1.45,0,0,1-.35.35,4.64,4.64,0,0,1-1.18.68A11.44,11.44,0,0,1,86,30L86,29.84a7.14,7.14,0,0,0,1.27-.6A2.79,2.79,0,0,0,88,28.5a2.43,2.43,0,0,0,.44-.82c-1,0-1.74,0-2.15.08l-.37-.7a19.26,19.26,0,0,0,2.61.14c0-.32.07-.71.1-1.17h-1l-.17.12a8.71,8.71,0,0,1-1.32.7L86,26.72a7.22,7.22,0,0,0,.67-1.1,5.76,5.76,0,0,0,.37-1.13ZM99.52,36.6V36H96.25a3,3,0,0,1-1.46-.27.77.77,0,0,1-.53-.76V34H92a3.82,3.82,0,0,1-.21.36,3.73,3.73,0,0,1-1.53,1.1,11.06,11.06,0,0,1-2.55.84l-.25-.22a4.11,4.11,0,0,0,1.25-.76,3.16,3.16,0,0,0,.88-1,1.49,1.49,0,0,0,.09-.3h-2.5V36.6Zm0,1.6V37.09H87.22V38.2Zm-5.26-6.06h-1.9v.36a3.56,3.56,0,0,1-.14,1h2Zm3.08-3.62a2.14,2.14,0,0,0,.7.3,8.41,8.41,0,0,0,1.39-1.28H95.86A5.76,5.76,0,0,0,97.34,28.52Zm-1,6.13c0,.15.14.22.47.22h2.71V34H96.34Z"/><path class="d" d="M114,23.82c.58.39.88.66.88.8s-.23.25-.65.32-.81.21-.88.32A21.22,21.22,0,0,1,110.66,29a11.35,11.35,0,0,1,2.23,1.84,4.92,4.92,0,0,1,.72,1.23,3.69,3.69,0,0,1,.3,1.39,1.78,1.78,0,0,1-.47,1.37,3,3,0,0,1-1.09.84,2.52,2.52,0,0,1-1,.28c-.18,0-.35-.19-.44-.59s-.72-.76-1.64-1.08v4.59c0,.22-.4.4-1.16.52l-.74,0c-.49,0-.72-.2-.72-.56,0-.64.09-1.24.09-1.87V25.81a19.71,19.71,0,0,0-.18-2.58,29.16,29.16,0,0,1,3.26.91h1.07c.32-.31.62-.55.88-.77a1.27,1.27,0,0,1,.67-.28A4.56,4.56,0,0,1,114,23.82Zm-4.72,10a10.58,10.58,0,0,0,1.36.09,1.49,1.49,0,0,0,.75-.16,1.57,1.57,0,0,0,.23-.9,4.49,4.49,0,0,0-.37-1.9A7.66,7.66,0,0,0,109.83,29a23,23,0,0,0,1.37-4.4h-1.9Zm7.41-2.28h6.35a8.82,8.82,0,0,0,.74-.68,3.88,3.88,0,0,1,1-.79,2.74,2.74,0,0,1,1.32.77c.63.5,1,.8,1,.91s-.16.27-.46.27h-4v4.74c0,.34.1.53.33.57a6.64,6.64,0,0,0,1,0,1.06,1.06,0,0,0,.78-.27,13.35,13.35,0,0,0,.84-2.29l.46.07L126,36a1.3,1.3,0,0,0,.56,1.07c.32.27.51.52.51.75a.76.76,0,0,1-.51.7,6.92,6.92,0,0,1-2.73.41h-1.32a5.53,5.53,0,0,1-1.3-.15,1.22,1.22,0,0,1-1.18-1.32V32h-1.39a8.67,8.67,0,0,1-.74,3,6.88,6.88,0,0,1-1.21,1.67,7.24,7.24,0,0,1-2,1.25,21.65,21.65,0,0,1-3.47,1.23l-.28-.43a9.09,9.09,0,0,0,2-1,7.09,7.09,0,0,0,1.65-1.53,5.69,5.69,0,0,0,.92-1.68A7.57,7.57,0,0,0,116,32c-.95,0-1.64,0-2.08.07l-.35-.7A22.83,22.83,0,0,0,116.71,31.52Zm4.4-8.13c.56,0,.86.14.86.34s-.19.18-.54.3-.55.29-.55.46v1.18h2.34c.3-.23.55-.43.76-.57a1.31,1.31,0,0,1,.7-.41,4.84,4.84,0,0,1,1.53.78c.71.47,1.08.79,1.08,1s-.18.25-.53.28a2.29,2.29,0,0,0-.72.07,21.45,21.45,0,0,1-2.36,1.07.06.06,0,0,0,0,0c.55.46.85.73.85.84s-.13.28-.37.28H117.8c-1.32,0-2.25,0-2.8.05l-.37-.69a23.68,23.68,0,0,0,3.17.14h3.08a4.84,4.84,0,0,0,.72-.62,3.22,3.22,0,0,1,.9-.7,1.16,1.16,0,0,1,.46.15,12.53,12.53,0,0,0,.63-1.2h-7.83a9.32,9.32,0,0,1-.14,1,1.58,1.58,0,0,1-.76,1,1.51,1.51,0,0,1-.68.16,1.84,1.84,0,0,1-1.13-.32.79.79,0,0,1-.42-.73c0-.14.23-.34.74-.57a4.47,4.47,0,0,0,1.26-.75,3.29,3.29,0,0,0,.74-1.19l.44.07c0,.36,0,.66,0,.91h2.64v-1.1a8.37,8.37,0,0,0-.16-1.48Q119.72,23.2,121.11,23.39Z"/><path class="e" d="M60.41,47.29h2.83l3.7,5.43V47.29H69.8v9.82H66.94l-3.68-5.39v5.39H60.41Z"/><path class="e" d="M71.13,47.29h9.23v2.42h-3.1v7.4h-3v-7.4h-3.1Z"/><path class="e" d="M88.13,47.29h3v5.85a5,5,0,0,1-.27,1.65A3.68,3.68,0,0,1,90,56.14a3.33,3.33,0,0,1-1.22.81,6.11,6.11,0,0,1-2.13.33,12.69,12.69,0,0,1-1.56-.1,4.12,4.12,0,0,1-1.42-.4,3.45,3.45,0,0,1-1-.85A3,3,0,0,1,82,54.8a5.76,5.76,0,0,1-.28-1.66V47.29h3v6a1.7,1.7,0,0,0,.45,1.26,1.91,1.91,0,0,0,2.46,0,1.67,1.67,0,0,0,.45-1.26Z"/><path class="e" d="M93.18,47.29h3v3.44h3.32V47.29h3v9.82h-3v-4H96.22v4h-3Z"/><path class="e" d="M103.9,52.48h4v2.11h-4Z"/><path class="e" d="M108.18,47.29h3.37l2,3.31,2-3.31h3.35L115.05,53v4.11h-3V53Z"/><path class="e" d="M119.85,47.29h3v7.4h4.74v2.42h-7.78Z"/><polygon class="f" points="51.68 48.45 46.33 48.45 46.33 42.65 39.65 42.65 39.65 48.45 34.3 48.45 34.3 55.13 39.65 55.13 39.65 60.48 46.33 60.48 46.33 55.13 51.68 55.13 51.68 48.45"/></svg>