<svg xmlns="http://www.w3.org/2000/svg" xmlns:xlink="http://www.w3.org/1999/xlink" viewBox="0 0 188 77.98"><defs><style>.a{isolation:isolate;}.b{fill:url(#a);}.c{fill:url(#b);}.d{fill:url(#c);}.e{fill:#202b6d;}.f{opacity:0.75;mix-blend-mode:multiply;}.g{fill:#ed1e79;}.h{fill:#f15a24;}.i{fill:#fcee21;}.j{fill:#39b54a;}.k{fill:#29abe2;}.l{fill:#fff;}</style><linearGradient id="a" x1="-565.64" y1="42.43" x2="-437.33" y2="42.43" gradientTransform="translate(828.79) scale(1.47 1)" gradientUnits="userSpaceOnUse"><stop offset="0" stop-color="#f15a24" stop-opacity="0"/><stop offset="0.5" stop-color="#f15a24"/><stop offset="1" stop-color="#f15a24" stop-opacity="0"/></linearGradient><radialGradient id="b" cx="38.9" cy="54.32" r="20.29" gradientUnits="userSpaceOnUse"><stop offset="0.17" stop-color="#8cc63f"/><stop offset="1" stop-color="#006837"/></radialGradient><radialGradient id="c" cx="35.92" cy="17.05" r="28.79" gradientUnits="userSpaceOnUse"><stop offset="0" stop-color="#16367d"/><stop offset="1" stop-color="#16153f"/></radialGradient></defs><title>logo-ntuch</title><g class="a"><rect class="b" y="41.43" width="188" height="2"/><circle class="c" cx="41.04" cy="57.98" r="20"/><path class="d" d="M45.51,19.8a4.32,4.32,0,0,1-3.8-1.65,1.07,1.07,0,0,1,.36-1.75,3.33,3.33,0,0,1,1.54-.4,9.13,9.13,0,0,0,5.69-1.67c.68-.42,1.58-.27,2.34-.62A2.48,2.48,0,0,0,53,12.3c1.07-2.16.47-4.38.72-6.55a22.63,22.63,0,0,0,0-3.19c0-.61.21-.81.81-.79a12.63,12.63,0,0,0,2.13-.12,1.06,1.06,0,0,1,1.24.56C58,5.48,57.07,8.66,57,12c1-.26,2.06-.5,3.08-.77a1.43,1.43,0,0,0,.36-.2c1.32-.59,2.64-1.15,3.95-1.77.5-.23,1.05-.43,1.28-1a.8.8,0,0,1,.59-.41c1.23.09,2.56-.59,3.65.34.54.46,1.18.15,1.69.48,0,.68,0,1.35,0,2s-.21.82-.81.79a8.82,8.82,0,0,0-3.06.31c-3,.89-5.94,2-8.91,3-.66.22-1.05.9-1.76.92s-.72.31-.75.79a9.29,9.29,0,0,1-1.08,3.3,65.25,65.25,0,0,0-2.73,7c-.11.33.07.82-.25,1-1.33.78-1.78,2.27-2.75,3.34a4.88,4.88,0,0,1-2,1.31,23,23,0,0,1-4.7.76c-.52,0-1.05.23-1.57,0-.12-.37.23-.4.4-.54,2.36-1.85,4.11-4.3,6.14-6.47a7.7,7.7,0,0,0,1.47-3.4c.35-1.34,1-2.57,1.42-3.86a.81.81,0,0,0,.31-1.16.4.4,0,0,0-.6-.21C48.78,18.27,47,18.69,45.51,19.8Z"/><path class="d" d="M57.34,24.34a14.45,14.45,0,0,1,3.91-.21c1.52.34,3.18.44,4.54,1.39A5.72,5.72,0,0,0,69,27a.67.67,0,0,0,.37.49,9.07,9.07,0,0,0,3.24,1.66.74.74,0,0,0,.21,0c1.52,1.82,3,3.63,4.56,5.46a2.35,2.35,0,0,1,.3,2.67,3.35,3.35,0,0,1-3.62,2c-2.11.22-3.14-1.44-4.39-2.62-1.52-1.43-2.5-3.38-4.32-4.52-1.17-1.41-2.93-1.57-4.5-2.13l-.43-.23a.35.35,0,0,0-.4-.21,13.61,13.61,0,0,1-4.52-3.41,10.6,10.6,0,0,0,0-1.26c0-.49.25-.6.62-.66l.4.07c.15.18.32.14.5.05l.28,0Z"/><path class="d" d="M28.79,16.17c-1.46,1-2.81,2.2-4.61,2.59-.18,0-.44.22-.49-.13,0-.08.17-.2.26-.3,2.29-.79,3.82-2.52,5.22-4.37a1,1,0,0,0-.08-1.19c-.32-.3-.71,0-1.06.16-.91.56-1.8,1.15-2.76,1.62A42.16,42.16,0,0,0,18.45,19a12.24,12.24,0,0,1-3.73,1.88A13.66,13.66,0,0,0,10.19,23a15.9,15.9,0,0,1-3.68,2.19A2.68,2.68,0,0,1,3,22.61c0-1.24-.29-2.48.77-3.5a1.59,1.59,0,0,1,1.37-.62,5.94,5.94,0,0,0,5.45-2.09c1.55-1.63,3.57-2.82,4.91-4.68C16.68,10,18.26,8.65,19.57,7a5.87,5.87,0,0,0,1.55-4.88c-.11-.69-.39-1.61.63-2l.19-.06L22.35,0,24,.16l.23.23a.34.34,0,0,0,.26.34l.42.47c.83,1,1.62,2,2.49,2.92a1.57,1.57,0,0,1,.38,1.75C27.05,8,25.08,9,23.48,10a38.57,38.57,0,0,1-6.29,3.26c-3,.64-4.59,3.27-6.94,4.85A12,12,0,0,0,13.19,17l4.08-1.19A23.17,23.17,0,0,0,22.15,14a39.24,39.24,0,0,0,6-2.86c.25-.16.83-.33.47-.75s-.31-1-.39-1.47c.2-.71,1.05-.32,1.37-.83,1-.12,1.61.57,2.34,1a3.42,3.42,0,0,0,1.49,1,3.9,3.9,0,0,1,2.81,4.31c0,.95-.36,1.53-1.45,1.46a15.63,15.63,0,0,0-2.65,0c-1.07.12-2.17-.28-3.19.25h0A.19.19,0,0,0,28.79,16.17Z"/><path class="d" d="M16.17,22.35c.31,0,.63-.05.95-.05,1.23,0,1.46.29,1.41,1.53a3.54,3.54,0,0,0-.73,1.72,77.13,77.13,0,0,0,.13,8.6c0,.34.05.72.47.7.82-.05,1.71.31,2.46-.32A31.7,31.7,0,0,1,26.58,33a1.55,1.55,0,0,0,1.56-1.73,13.28,13.28,0,0,1,1.3-4.47h0l.18-.22c.32-.7.94-1.22,1.11-2,.11-.46,0-.61-.47-.68a6,6,0,0,0-3.44.71c-2.06,1-4,2.15-6,3.25-.26.14-.52.33-.79.14s-.22-.59-.12-.88a3.73,3.73,0,0,0,.33-1.86.28.28,0,0,0,0-.2l.06-.05,0-.06a4.39,4.39,0,0,1,.93-.19,7,7,0,0,0,5.06-2.06c.42-.4,1.17-.44,1.62-.81,2.4-2,5.18-1.2,7.86-1.19a.75.75,0,0,1,.52.34l.06.4a1,1,0,0,0,.2.85A9.34,9.34,0,0,1,36,25.52c-.42,1-1.42,1.64-1.5,2.78,0,.06-.08.13-.14.15-1.35.4-1.45,1.75-2,2.71s0,1.52,1.05,1.48a1.1,1.1,0,0,1,1,.31,2,2,0,0,1-1.17,3.27c-3.52.48-7,1-10.6,1.33-.74.07-2-.27-2,1.18,0,.11-.32.25-.51.31a4.12,4.12,0,0,1-2,.15,11,11,0,0,0-3-.08,3.86,3.86,0,0,1-1.25-.18c-.58-.23-1.11-.4-1.18-1.16s.46-1,1-1.19a1,1,0,0,0,.51-1.34,15.68,15.68,0,0,1-.2-7.21,5.26,5.26,0,0,1,1.73-3.61,1,1,0,0,0,.24-1,1.32,1.32,0,0,1,.28-1.09Z"/><path class="d" d="M20.18,25.3l0-.2A.28.28,0,0,1,20.18,25.3Z"/><path class="e" d="M84.62,28.06v4.05h4.32s.13-.09.35-.28.49-.43.59-.43a2.69,2.69,0,0,1,.8.49c.27.2.42.33.42.38v0a11.28,11.28,0,0,0,1.27-.59h0a2.5,2.5,0,0,1-.5-.47,3.57,3.57,0,0,1-.63-.95l-.79,0-.25-.5c.74.07,1.47.1,2.16.1h1.77l.34-.27.13-.09c-.37,0-.59,0-.63-.1-.36-.07-.54-.37-.54-.91V27.9H92.27a1.83,1.83,0,0,1-.91,1.43,3.37,3.37,0,0,1-1.41.4l-.07-.1a1.74,1.74,0,0,0,1-1.78,2.76,2.76,0,0,0-.13-.82,10.7,10.7,0,0,1,1.72.52h.81l.39-.32a.86.86,0,0,1,.44-.2,1.9,1.9,0,0,1,.77.33c.32.2.5.36.5.49s-.1.17-.29.27-.34.18-.34.29,0,.22.13.25a1.56,1.56,0,0,0,.5.05l.33,0a.43.43,0,0,0,.39-.22l.37-.62.18,0,.06.21a.75.75,0,0,0,.23.48c.2.18.29.3.29.38s-.18.36-.53.45a5.3,5.3,0,0,1-1.32.16l.37.22c.39.29.59.45.59.53s-.15.15-.44.16a1.26,1.26,0,0,0-.52.1,3.57,3.57,0,0,1-1.06.91v0a17.58,17.58,0,0,0,2.73.35l-.07.19a.92.92,0,0,0-.65.5c.1.07.23.18.36.29.36.32.55.51.55.59s-.09.19-.26.19H92v1h1.85l.47-.35a1,1,0,0,1,.47-.25,2.91,2.91,0,0,1,.93.36c.52.32.79.54.79.65s-.13.23-.35.36-.28.28-.28.4v.41L96,38.61c0,.15-.27.25-.81.33l-.52,0c-.29,0-.44-.11-.44-.35v-.2H85.57v.2c0,.15-.26.25-.74.33l-.46,0c-.36,0-.52-.11-.52-.35a5.63,5.63,0,0,0,.07-.75V35.12c0-.29,0-.63-.07-1a15.6,15.6,0,0,1,1.87.56h1.69a6.16,6.16,0,0,0,.06-.76v-.26H84.68c-.93,0-1.58,0-2,.06l-.26-.51a16.24,16.24,0,0,0,2.23.1H94.77a3,3,0,0,0,.47-.43l0,0c-.18,0-.36-.08-.56-.13a7.51,7.51,0,0,1-1.62-.56l-.41.16a13.15,13.15,0,0,1-2.86.63l-.06-.21a7.18,7.18,0,0,0,.87-.26h-6v.16c0,.16-.23.26-.69.33l-.45,0c-.3,0-.44-.11-.44-.36s0-.78,0-1.17V28.76c0-.55,0-1.09,0-1.63a19.5,19.5,0,0,1,1.92.56H88.3l.33-.27c.29-.26.47-.39.55-.39a2.84,2.84,0,0,1,.77.47c.26.18.38.3.38.35s-.06.21-.19.21H86l.59.13c.32.09.49.18.49.27s-.1.12-.28.13-.29,0-.31.07l-.13.15H88a3.16,3.16,0,0,0,.29-.21,1.2,1.2,0,0,1,.47-.3,2.51,2.51,0,0,1,.64.37c.21.15.32.26.32.3s-.06.21-.19.21h-1.6a6.15,6.15,0,0,1-.08.85h.47a2.43,2.43,0,0,0,.33-.28,1.61,1.61,0,0,1,.44-.33,1.26,1.26,0,0,1,.55.34c.26.23.39.38.39.43s-.06.19-.18.19H87.74a1,1,0,0,1-.09.15,11,11,0,0,1,1.32.22c.26.08.41.18.41.3a.69.69,0,0,1-.3.53.74.74,0,0,1-.53.18.52.52,0,0,1-.47-.3,2.4,2.4,0,0,0-.62-.61,1,1,0,0,1-.25.26,3.3,3.3,0,0,1-.82.5,8.37,8.37,0,0,1-1.64.45l-.07-.1a5.27,5.27,0,0,0,.89-.44,1.86,1.86,0,0,0,.57-.54,1.72,1.72,0,0,0,.31-.6c-.71,0-1.22,0-1.51.06l-.26-.51a14.19,14.19,0,0,0,1.84.1c0-.23,0-.52.06-.85h-.66l-.12.09a5.86,5.86,0,0,1-.92.5l-.13-.09a7.14,7.14,0,0,0,.47-.8,6.12,6.12,0,0,0,.26-.82Zm9.58,8.82v-.45H91.91a2,2,0,0,1-1-.2.55.55,0,0,1-.38-.55V35H89a1.26,1.26,0,0,1-.14.26,2.7,2.7,0,0,1-1.07.81,7.69,7.69,0,0,1-1.79.61l-.18-.16a2.92,2.92,0,0,0,.88-.56,2.17,2.17,0,0,0,.61-.74.81.81,0,0,0,.07-.22H85.57v1.87Zm0,1.17v-.8H85.57v.8Zm-3.69-4.42H89.18v.26a2.5,2.5,0,0,1-.1.76h1.43ZM92.67,31a2,2,0,0,0,.49.22,6.23,6.23,0,0,0,1-.94H91.63A4.64,4.64,0,0,0,92.67,31ZM92,35.47c0,.1.09.15.32.15h1.9V35H92Z"/><path class="e" d="M104.38,27.56c.4.29.61.48.61.59s-.16.18-.45.23-.57.16-.62.24a15.91,15.91,0,0,1-1.9,2.74,8.11,8.11,0,0,1,1.56,1.34,3.88,3.88,0,0,1,.5.9,2.68,2.68,0,0,1,.21,1,1.32,1.32,0,0,1-.32,1,2.14,2.14,0,0,1-.76.61,1.82,1.82,0,0,1-.69.21c-.13,0-.24-.14-.31-.43s-.5-.56-1.15-.79v3.35c0,.16-.28.29-.81.38l-.52,0c-.34,0-.51-.14-.51-.4,0-.47.07-.91.07-1.36V29a14.63,14.63,0,0,0-.13-1.89,19.54,19.54,0,0,1,2.29.67h.75c.22-.22.44-.41.62-.56a.87.87,0,0,1,.47-.21A3.18,3.18,0,0,1,104.38,27.56Zm-3.32,7.28a6.07,6.07,0,0,0,1,.07.93.93,0,0,0,.52-.12,1.08,1.08,0,0,0,.16-.65,3.41,3.41,0,0,0-.26-1.39,5.65,5.65,0,0,0-1-1.39,17.38,17.38,0,0,0,1-3.21h-1.33Zm5.2-1.66h4.45a4.22,4.22,0,0,0,.52-.49c.39-.38.62-.58.69-.58a2,2,0,0,1,.92.56c.44.37.67.59.67.67s-.12.19-.33.19h-2.79V37c0,.25.06.39.23.41a3.43,3.43,0,0,0,.66,0,.72.72,0,0,0,.55-.19,10.55,10.55,0,0,0,.59-1.68l.32,0,.07.86a1,1,0,0,0,.39.78c.23.2.36.38.36.55a.53.53,0,0,1-.36.5,4.52,4.52,0,0,1-1.92.3h-.92a4,4,0,0,1-.91-.1.88.88,0,0,1-.83-1v-4h-1a6.57,6.57,0,0,1-.52,2.21,5.17,5.17,0,0,1-.84,1.22,5.09,5.09,0,0,1-1.38.91,15.48,15.48,0,0,1-2.44.9l-.2-.31a6.05,6.05,0,0,0,1.4-.77,4.71,4.71,0,0,0,1.15-1.12,3.91,3.91,0,0,0,.65-1.22,6,6,0,0,0,.3-1.82c-.67,0-1.16,0-1.47,0l-.24-.5A17.46,17.46,0,0,0,106.26,33.18Zm3.09-5.93c.39,0,.6.11.6.25s-.13.13-.37.22-.39.21-.39.34v.86h1.64c.21-.17.39-.32.53-.42a.9.9,0,0,1,.49-.3,3.39,3.39,0,0,1,1.07.57c.51.34.77.57.77.7s-.13.19-.38.21a1.58,1.58,0,0,0-.5.05,15.46,15.46,0,0,1-1.66.78s0,0,0,0c.39.34.61.53.61.61s-.1.21-.26.21H107c-.92,0-1.57,0-2,0l-.26-.51A15.77,15.77,0,0,0,107,31h2.17a3.93,3.93,0,0,0,.5-.46,2.42,2.42,0,0,1,.63-.51.79.79,0,0,1,.33.11c.16-.29.31-.57.44-.87h-5.5c0,.32-.06.56-.09.71a1.2,1.2,0,0,1-.54.7,1,1,0,0,1-.47.12,1.33,1.33,0,0,1-.8-.23.6.6,0,0,1-.29-.54c0-.1.16-.24.52-.41a3.23,3.23,0,0,0,.88-.55,2.4,2.4,0,0,0,.52-.87l.31.05c0,.26,0,.48,0,.67h1.85v-.81a6.7,6.7,0,0,0-.11-1.08C108,27.08,108.7,27.16,109.35,27.25Z"/><g class="f"><path d="M69,55.1h5.62L82,65.87V55.1h5.67V74.57H82L74.69,63.88V74.57H69Z"/><path d="M90.28,55.1h18.28v4.81h-6.13V74.57h-6V59.91H90.28Z"/><path d="M124,55.1h6V66.7a9.74,9.74,0,0,1-.54,3.26,7,7,0,0,1-1.69,2.68,6.71,6.71,0,0,1-2.41,1.61,12,12,0,0,1-4.21.65,25,25,0,0,1-3.1-.2,8,8,0,0,1-2.81-.79,7,7,0,0,1-2.06-1.67A6.13,6.13,0,0,1,111.86,70a11.27,11.27,0,0,1-.56-3.29V55.1h6V67a3.4,3.4,0,0,0,.88,2.49,3.82,3.82,0,0,0,4.89,0A3.37,3.37,0,0,0,124,67Z"/><path d="M146.9,66.6l5.27,1.6a9.63,9.63,0,0,1-1.67,3.7,7.33,7.33,0,0,1-2.84,2.25,10.68,10.68,0,0,1-4.31.75,12.42,12.42,0,0,1-5.18-.92,8.21,8.21,0,0,1-3.47-3.24,11,11,0,0,1-1.47-5.95q0-4.83,2.57-7.42t7.27-2.6a9.9,9.9,0,0,1,5.79,1.49A8.71,8.71,0,0,1,152,60.83L146.67,62a4.47,4.47,0,0,0-.58-1.3,3.4,3.4,0,0,0-1.24-1.06,3.76,3.76,0,0,0-4.76,1.27,7,7,0,0,0-.83,3.83q0,3.24,1,4.44a3.88,3.88,0,0,0,5.37.23A6.07,6.07,0,0,0,146.9,66.6Z"/><path d="M155.12,55.1h6v6.82h6.58V55.1h6V74.57h-6V66.7h-6.58v7.87h-6Z"/></g><path class="g" d="M69,54.1h5.62L82,64.87V54.1h5.67V73.57H82L74.69,62.88V73.57H69Z"/><path class="h" d="M90.28,54.1h18.28v4.81h-6.13V73.57h-6V58.91H90.28Z"/><path class="i" d="M124,54.1h6V65.7a9.74,9.74,0,0,1-.54,3.26,7,7,0,0,1-1.69,2.68,6.71,6.71,0,0,1-2.41,1.61,12,12,0,0,1-4.21.65,25,25,0,0,1-3.1-.2,8,8,0,0,1-2.81-.79,7,7,0,0,1-2.06-1.67A6.13,6.13,0,0,1,111.86,69a11.27,11.27,0,0,1-.56-3.29V54.1h6V66a3.4,3.4,0,0,0,.88,2.49,3.82,3.82,0,0,0,4.89,0A3.37,3.37,0,0,0,124,66Z"/><path class="j" d="M146.9,65.6l5.27,1.6a9.63,9.63,0,0,1-1.67,3.7,7.33,7.33,0,0,1-2.84,2.25,10.68,10.68,0,0,1-4.31.75,12.42,12.42,0,0,1-5.18-.92,8.21,8.21,0,0,1-3.47-3.24,11,11,0,0,1-1.47-5.95q0-4.83,2.57-7.42t7.27-2.6a9.9,9.9,0,0,1,5.79,1.49A8.71,8.71,0,0,1,152,59.83L146.67,61a4.47,4.47,0,0,0-.58-1.3,3.4,3.4,0,0,0-1.24-1.06,3.76,3.76,0,0,0-4.76,1.27,7,7,0,0,0-.83,3.83q0,3.24,1,4.44a3.88,3.88,0,0,0,5.37.23A6.07,6.07,0,0,0,146.9,65.6Z"/><path class="k" d="M155.12,54.1h6v6.82h6.58V54.1h6V73.57h-6V65.7h-6.58v7.87h-6Z"/><polygon class="l" points="53.82 53.39 45.95 53.39 45.95 44.86 36.12 44.86 36.12 53.39 28.25 53.39 28.25 63.22 36.12 63.22 36.12 71.09 45.95 71.09 45.95 63.22 53.82 63.22 53.82 53.39"/><path class="h" d="M123.48,20.19l-5.11,1.41a16,16,0,0,0-.67,2.57,21.53,21.53,0,0,1,3.46.43l-.22,2.62a33.55,33.55,0,0,0-3.42-.41,2.42,2.42,0,0,0,1.3,2.23,7.3,7.3,0,0,0,3.62.92,6.66,6.66,0,0,0,3.9-1,2.12,2.12,0,0,0,.8-1.42c-1.19-.14-2.34-.31-3.44-.46l.27-2.61c1.11.09,2.19.19,3.24.33a3.57,3.57,0,0,0-.56-1.68,1.89,1.89,0,0,0-1.13-.33c-.45,0-1.1.05-2,.09l.22-2.9c.77-.05,1.49-.1,2.18-.1a3.47,3.47,0,0,1,2.83,1.32,7.82,7.82,0,0,1,1.11,4.68c0,2.4-.54,4.11-1.62,5.09a6.22,6.22,0,0,1-1.56.89,24.33,24.33,0,0,0-.42,2.83c0,1,.31,1.49.92,1.49a10.57,10.57,0,0,0,2.54-.84l.34,2.64a10.56,10.56,0,0,1-3.3.84h-.36a2.42,2.42,0,0,1-1.87-1.06,3.76,3.76,0,0,1-.65-2.32,17.87,17.87,0,0,1,.27-3,15,15,0,0,1-1.81.09,10.61,10.61,0,0,1-2.56-.26c-.65,2-1.26,4.2-1.87,6.55l-2.25-1q.86-3.53,1.83-6.41a.08.08,0,0,1-.07,0q-2.27-1.38-2.27-4.73a17.54,17.54,0,0,1,.74-5.23l-.38-1.8q3.81-1.2,7.24-2.07Z"/><path class="h" d="M141.12,19c1.84-.07,3.73-.12,5.64-.12l.14,2.16c-.9,0-1.8,0-2.66.05-.13.48-.24.94-.33,1.39,1.17,0,2.36,0,3.55,0l.14,2c-4.79,0-9.63.27-14.49.75l-.15-2c1.1-.12,2.22-.22,3.35-.31a13.14,13.14,0,0,1-.34-1.3l-2.16.22-.12-2.16c1.62-.2,3.27-.34,5-.48a6.84,6.84,0,0,1-.43-1.2l2-1.13A9.61,9.61,0,0,0,141.12,19Zm-4.55,6.79a27.59,27.59,0,0,1,4.77-.45,13.68,13.68,0,0,1,3.08.24,4.08,4.08,0,0,1,2.28,1.22,3.7,3.7,0,0,1,.76,2.71v.34a2.63,2.63,0,0,1-.92,2c-.79.77-2.54,1.15-5.27,1.15H141c0,.24,0,.46,0,.65,1.53-.05,3.05-.1,4.56-.1l.13,1.88c-1.59,0-3.1,0-4.54.07,0,.33,0,.62.05.89,2-.08,4.09-.17,6.18-.32l.14,2.07q-7,.44-14.2.57l-.15-2.06c1.86,0,3.73-.07,5.64-.17,0-.31,0-.6,0-.89-1.51.1-3,.2-4.34.32l-.12-1.88c1.45-.12,2.89-.21,4.33-.28,0-.29,0-.53-.05-.77a10.85,10.85,0,0,1-3.4-.58,3,3,0,0,1-2-2.88A7.24,7.24,0,0,1,135,25.35ZM138,27.56a24.17,24.17,0,0,0-2.43.52,1,1,0,0,0-.09.36h2.65C138.08,28.16,138,27.84,138,27.56Zm.3,2.49h-2.48a1.53,1.53,0,0,0,.68.53,5.56,5.56,0,0,0,1.88.41C138.33,30.68,138.31,30.36,138.29,30.05Zm3.48-7.49a13.62,13.62,0,0,1,.29-1.39c-1.3,0-2.58.12-3.84.22a11.83,11.83,0,0,0,.4,1.32Zm-1.33,4.78c0,.34.09.7.12,1.1h2.88l-.05,1.61h-2.68c0,.34,0,.7.07,1h.14a18.54,18.54,0,0,0,2.51-.14,2.55,2.55,0,0,0,1.33-.48,1.25,1.25,0,0,0,.45-1,1.88,1.88,0,0,0-1-1.9,10.61,10.61,0,0,0-3.05-.26Z"/><path class="h" d="M159,17.86l-.15,2.06-3.51-.28c-.11.28-.22.55-.29.79.4.05.78.07,1.17.09a.07.07,0,0,1,0,0l0,0c.93.08,1.83.15,2.72.24l-.08,1.59-1.83-.17c-.18.31-.35.62-.49.91.72,0,1.44,0,2.18-.07l.07,1.58c-1,0-2,.1-3.06.12a19,19,0,0,1,2.43,1l-.23,1,1.35-.26.29,2a34.27,34.27,0,0,1-4.72.58h-.36a3.73,3.73,0,0,1-3-1.22A4,4,0,0,1,150.48,25a30.47,30.47,0,0,1,.65-5.69,2.84,2.84,0,0,1-.51-.05l.22-2Q155.06,17.51,159,17.86Zm6,5.62a1.64,1.64,0,0,1,.5,1.22,2.14,2.14,0,0,1-.7,1.56,5.72,5.72,0,0,1-.69.74,9,9,0,0,0,2.24.41L166,29.28a8.14,8.14,0,0,1-3.59-.79c-.48.39-1,.79-1.54,1.2l4.86.36-.07,1.68c-1.88-.12-3.68-.24-5.44-.33a5.85,5.85,0,0,0-.07.72,10.19,10.19,0,0,1,4,.64c1.05.39,1.59,1.32,1.59,2.81V36a2.33,2.33,0,0,1-1.08,2.28,7.7,7.7,0,0,1-3.19.62h-6.27a5,5,0,0,1-3.17-.74,3.17,3.17,0,0,1-.93-2.55,7.27,7.27,0,0,1,1-3.55l1.53.43c.76-.09,1.53-.17,2.29-.24a9.56,9.56,0,0,1,.05-1.05c-1.58-.1-3.13-.17-4.64-.27l.21-1.7c3,.14,6,.29,8.91.48L160,28.25c.29-.24.56-.45.83-.69A9.58,9.58,0,0,1,160,27l.29-1.23-.85.46-.29-1.87a12.06,12.06,0,0,1,4.51-1.23A2.35,2.35,0,0,1,165,23.48Zm-9.89,2.37c-.25.46-.48.91-.7,1.35l0,0,0,0-1-1.28c.18-.38.38-.76.58-1.15-.33,0-.63,0-.92,0L153,23.19c.59,0,1.2,0,1.83-.05.18-.36.38-.72.58-1.08a6.14,6.14,0,0,1-.78,0c-.07.27-.12.51-.16.72l-1.26-.38a17,17,0,0,1,.79-2.81l-.81-.07a31.15,31.15,0,0,0-.7,4.65,3.73,3.73,0,0,0,.6,2.26,1.91,1.91,0,0,0,1.36.82h0a1.77,1.77,0,0,0,.32,0,17.05,17.05,0,0,0,2.85-.41C156.67,26.43,155.86,26.12,155.14,25.85ZM160,36.05l-1.6-.19c0-.7,0-1.37,0-2l-.92,0c0,.72-.05,1.44-.05,2.12l-1.62-.2c0-.6,0-1.2,0-1.8l-2.37.29a2,2,0,0,0-.11.58v0l1.84.17-.08,1.49-1.67-.15a1.42,1.42,0,0,0,.11.48c.11.2.23.32.38.32h6.84a9.28,9.28,0,0,0,2.32-.22,2.35,2.35,0,0,0,.4-1.66,1.3,1.3,0,0,0-.67-1.08,8.57,8.57,0,0,0-2.77-.38C160,34.59,160,35.33,160,36.05ZM158.6,31.3c-.34,0-.67,0-1-.05a6.63,6.63,0,0,0,0,.87c.33,0,.65,0,1,0A7,7,0,0,1,158.6,31.3Zm2.52-13.46a8.1,8.1,0,0,1,2.09-.56c1,0,1.51.63,1.55,1.71a1.39,1.39,0,0,1-.16.53,5.12,5.12,0,0,0-.26,1c0,.26.11.38.35.38a2.88,2.88,0,0,0,1.47-.38l.22,1.87a4.21,4.21,0,0,1-2.47.67c-.9,0-1.33-.53-1.33-1.61A4.39,4.39,0,0,1,162.9,20a.43.43,0,0,0,.09-.21c0-.24-.16-.39-.48-.39a3.55,3.55,0,0,0-1.26.51c.05,1,.12,2,.19,3.07l-1.67.17c-.14-1.83-.27-3.67-.36-5.52l1.69-.19C161.1,17.62,161.12,17.74,161.12,17.84Zm1.19,8.4c.47-.41.9-.8,1.26-1.16,0-.12-.15-.19-.43-.19a6.74,6.74,0,0,0-2.16.55A8.38,8.38,0,0,0,162.31,26.24Z"/><path class="h" d="M173.41,21.89a4.84,4.84,0,0,1,.78,2.59,7.6,7.6,0,0,1-.92,3.41,3.86,3.86,0,0,1,1.4,3.1,4.06,4.06,0,0,1-1,2.85,2.86,2.86,0,0,1-2.2,1.08c.07,1,.16,2,.27,3.1l-2.11.26q-.65-7-1.13-12.45l2.11-.29c.18,2.06.37,4.22.59,6.48a1.28,1.28,0,0,0,.85-.36.84.84,0,0,0,.39-.67,2.54,2.54,0,0,0-.16-.89,1.26,1.26,0,0,0-.61-.53,1.23,1.23,0,0,1-.63-1,1.62,1.62,0,0,1,.27-.94,10.63,10.63,0,0,0,.47-1.22,5,5,0,0,0,.18-1.15c0-.91-.27-1.37-.81-1.37A3.47,3.47,0,0,0,168.84,25l-.22-3a6.49,6.49,0,0,1,3.06-1A2,2,0,0,1,173.41,21.89Zm6.88-2.54a13.36,13.36,0,0,1,1.41-.1,2.56,2.56,0,0,1,1.94.87,3.29,3.29,0,0,1,.81,2.25,17.84,17.84,0,0,1-.7,4.2l-1.68-.41L182,27.32c-1.78-.15-3.56-.24-5.35-.27l.22-2.73c1.71,0,3.44.09,5.19.26a5.52,5.52,0,0,0,.16-1.27c0-.87-.52-1.32-1.57-1.32a8.5,8.5,0,0,0-4.43,1.46c.11,1.06.24,2.11.36,3.22l-2,.29c-.29-2.5-.56-4.73-.77-6.68l2-.26c0,.24,0,.46.07.67a12.94,12.94,0,0,1,2-.79,12.81,12.81,0,0,1-.59-1.68l2.12-1.13A10.25,10.25,0,0,0,180.29,19.35Zm3.94,12.09c-.68.1-1.35.2-2,.24a10.36,10.36,0,0,0-.52,3,1.64,1.64,0,0,0,.14.81.48.48,0,0,0,.5.31,4.07,4.07,0,0,0,1.89-1l.36,2.72a5.39,5.39,0,0,1-2.54,1,2.32,2.32,0,0,1-1.9-.77,3.74,3.74,0,0,1-.71-2.14,16.67,16.67,0,0,1,.36-3.67c-.46.05-.91.1-1.36.12a39.93,39.93,0,0,0-.67,6.55l-2.25-.29a35.12,35.12,0,0,1,.58-6.14c-.38,0-.74,0-1.09,0l-.19-2.91c3-.09,6-.36,9.2-.74Z"/></g></svg>